<svg width="208" height="20" viewBox="0 0 208 20" fill="none" xmlns="http://www.w3.org/2000/svg">
<path opacity="0.6" d="M8.46251 0H0V19.999H8.46251V0Z" fill="#FFBB33"/>
<path opacity="0.6" d="M117.864 0H109.401V19.999H117.864V0Z" fill="#FFBB33"/>
<path opacity="0.6" d="M8.46251 0H0V14.3886H8.46251C10.3495 14.3741 12.1543 13.6097 13.4835 12.2621C14.8127 10.9145 15.5586 9.09288 15.5586 7.19432C15.5586 5.29576 14.8127 3.47417 13.4835 2.12655C12.1543 0.778933 10.3495 0.01455 8.46251 0V0Z" fill="#FFBB33"/>
<path opacity="0.6" d="M36.475 19.999H23.0481V0L36.475 19.999Z" fill="#FFBB33"/>
<path opacity="0.6" d="M29.3241 0.000211298H23.0481V14.3889H29.3241C30.2678 14.3961 31.2035 14.2154 32.0774 13.8571C32.9513 13.4988 33.7461 12.9701 34.4159 12.3013C35.0858 11.6325 35.6174 10.837 35.9802 9.96049C36.343 9.08402 36.5298 8.14397 36.5298 7.19453C36.5298 6.24509 36.343 5.30504 35.9802 4.42857C35.6174 3.5521 35.0858 2.75655 34.4159 2.08777C33.7461 1.419 32.9513 0.890223 32.0774 0.531936C31.2035 0.173649 30.2678 -0.00706495 29.3241 0.000211298Z" fill="#FFBB33"/>
<path opacity="0.6" d="M90.5204 0L80.1091 19.999H90.5204H100.932L90.5204 0Z" fill="#FFBB33"/>
<path opacity="0.6" d="M79.8141 0L69.4028 19.999H79.8141H90.2254L79.8141 0Z" fill="#FFBB33"/>
<path opacity="0.6" d="M54.3189 19.999C59.808 19.999 64.2577 15.5221 64.2577 9.99949C64.2577 4.47693 59.808 0 54.3189 0C48.8299 0 44.3801 4.47693 44.3801 9.99949C44.3801 15.5221 48.8299 19.999 54.3189 19.999Z" fill="#FFBB33"/>
<path opacity="0.6" d="M197.589 0L187.177 19.999H197.589H208L197.589 0Z" fill="#FFBB33"/>
<path opacity="0.6" d="M186.882 0L176.47 19.999H186.882H197.293L186.882 0Z" fill="#FFBB33"/>
<path opacity="0.6" d="M161.738 19.999C167.227 19.999 171.677 15.5221 171.677 9.99949C171.677 4.47693 167.227 0 161.738 0C156.249 0 151.8 4.47693 151.8 9.99949C151.8 15.5221 156.249 19.999 161.738 19.999Z" fill="#FFBB33"/>
<path opacity="0.6" d="M142.917 3.30802C141.572 1.80528 139.805 0.74816 137.851 0.276171C135.897 -0.195819 133.846 -0.0604938 131.969 0.664286C130.093 1.38907 128.479 2.66924 127.34 4.33586C126.202 6.00248 125.593 7.97723 125.593 9.9995C125.593 12.0218 126.202 13.9965 127.34 15.6631C128.479 17.3298 130.093 18.6099 131.969 19.3347C133.846 20.0595 135.897 20.1948 137.851 19.7228C139.805 19.2508 141.572 18.1937 142.917 16.691L139.062 9.99971L142.917 3.30802Z" fill="#FFBB33"/>
<path opacity="0.6" d="M142.917 3.30817C141.746 1.99938 140.252 1.02507 138.586 0.483837C136.92 -0.0573928 135.142 -0.146336 133.431 0.226008L139.062 9.99943L142.917 3.30817Z" fill="#FFBB33"/>
<path opacity="0.6" d="M133.432 19.7734C135.142 20.1458 136.921 20.0568 138.586 19.5156C140.252 18.9744 141.746 18.0001 142.917 16.6913L139.063 10L133.432 19.7734Z" fill="#FFBB33"/>
<path opacity="0.6" d="M47.2915 17.0714C49.1556 18.9466 51.6837 20 54.3197 19.9999C56.9557 19.9997 59.4837 18.946 61.3475 17.0706C63.2114 15.1951 64.2584 12.6516 64.2582 9.99947C64.258 7.34735 63.2107 4.80393 61.3467 2.92871L47.2915 17.0714Z" fill="#FFBB33"/>
<path opacity="0.6" d="M154.711 17.0702C156.575 18.9454 159.103 19.9989 161.739 19.9989C164.375 19.9989 166.903 18.9454 168.767 17.0702C170.631 15.1949 171.678 12.6515 171.678 9.99943C171.678 7.34739 170.631 4.80398 168.767 2.92871L154.711 17.0702Z" fill="#FFBB33"/>
</svg>
