<svg width="18" height="18" viewBox="0 0 18 18" fill="none" xmlns="http://www.w3.org/2000/svg">
<path d="M12.9791 1.0005L15.3877 1.0005C15.6113 0.999586 15.8327 1.04548 16.0375 1.13524C16.2424 1.22499 16.4263 1.35664 16.5775 1.52173C16.7286 1.68683 16.8437 1.88174 16.9154 2.09398C16.987 2.30622 17.0136 2.53111 16.9935 2.75425C16.725 5.22976 15.8808 7.60766 14.5286 9.69688C13.2959 11.6406 11.6512 13.2886 9.71134 14.5237C7.61679 15.8833 5.23206 16.7294 2.75036 16.9935C2.52834 17.0136 2.30457 16.9871 2.0933 16.9158C1.88203 16.8445 1.6879 16.7299 1.52325 16.5794C1.35861 16.4288 1.22706 16.2455 1.13699 16.0411C1.04691 15.8368 1.00029 15.6159 1.00008 15.3926L1.00008 12.9791C0.996243 12.5887 1.13422 12.2102 1.3883 11.9142C1.64237 11.6182 1.99521 11.4248 2.38103 11.3702C3.15185 11.2683 3.9087 11.0794 4.63713 10.8071C4.9245 10.6988 5.23682 10.6754 5.53707 10.7396C5.83732 10.8037 6.11292 10.9528 6.33121 11.1691L7.35087 12.1908C9.36092 11.0455 11.0252 9.37794 12.1682 7.3639L11.1485 6.34221C10.9326 6.12349 10.7839 5.84734 10.7198 5.54649C10.6558 5.24564 10.6792 4.93271 10.7872 4.64477C11.059 3.91489 11.2476 3.15654 11.3492 2.38419C11.4042 1.99341 11.6007 1.63651 11.9012 1.38139C12.2017 1.12626 12.5853 0.990706 12.9791 1.0005Z" stroke="black" stroke-width="2" stroke-linecap="round" stroke-linejoin="round"/>
</svg>
